<svg xmlns="http://www.w3.org/2000/svg" viewBox="0 0 160 68"><title>Artboard 1</title><path d="M156,4V64H4V4H156m4-4H0V68H160V0Z" fill="#5f5f5f"/><path d="M31.44,43.9v-20h1.39V42.59h9.53V43.9Z" fill="#5f5f5f"/><path d="M57.19,36.84H49.06L46.28,43.9H44.73l8-20.07h.89L61.53,43.9H60Zm-7.61-1.26h7.15L54,28.38q-.34-.85-.82-2.35a22,22,0,0,1-.81,2.38Z" fill="#5f5f5f"/><path d="M78.86,23.91V36.84a7.16,7.16,0,0,1-2,5.39,7.65,7.65,0,0,1-5.56,1.94,6.76,6.76,0,0,1-7.37-7.38V23.91h1.41V36.84a5.57,5.57,0,0,0,6.13,6.1,5.47,5.47,0,0,0,6-6V23.91Z" fill="#5f5f5f"/><path d="M90.17,43.9H88.77V25.22H82.27V23.91h14.4v1.31H90.17Z" fill="#5f5f5f"/><path d="M111.11,43.9H100.19v-20h10.92V25.2h-9.53v7.56h9V34h-9v8.57h9.53Z" fill="#5f5f5f"/><path d="M116.78,35.19V43.9h-1.39v-20h4.76q3.72,0,5.5,1.37a4.9,4.9,0,0,1,1.78,4.14,5.41,5.41,0,0,1-1.06,3.39,5.89,5.89,0,0,1-3.22,2l5.43,9.11H126.9l-5.15-8.71Zm0-1.2h3.81a6.09,6.09,0,0,0,3.92-1.13,4,4,0,0,0,1.39-3.33,3.91,3.91,0,0,0-1.37-3.32,7.47,7.47,0,0,0-4.46-1h-3.31Z" fill="#5f5f5f"/></svg>